<svg width="19" height="19" viewBox="0 0 19 19" fill="none" xmlns="http://www.w3.org/2000/svg">
<path d="M0 18.75V12.3437L11.5104 0.885417C11.8229 0.572917 12.1701 0.347223 12.5521 0.208334C12.934 0.0694451 13.316 0 13.6979 0C14.1146 0 14.5139 0.078472 14.8958 0.235416C15.2778 0.392361 15.625 0.626388 15.9375 0.937499L17.8646 2.86458C18.1424 3.17708 18.3597 3.5243 18.5167 3.90625C18.6736 4.28819 18.7514 4.67014 18.75 5.05208C18.75 5.43403 18.6806 5.825 18.5417 6.225C18.4028 6.625 18.1771 6.98056 17.8646 7.29167L6.40625 18.75H0ZM3.125 15.625H5.10417L11.4063 9.27083L10.4688 8.28125L9.47917 7.34375L3.125 13.6458V15.625ZM10.4688 8.28125L9.47917 7.34375L11.4063 9.27083L10.4688 8.28125Z" fill="#F9E8D6"/>
</svg>
